HIERARCHY
ROOT Hips
{
  OFFSET 0 89.5177 0.535
  CHANNELS 6 Xposition Yposition Zposition Zrotation Xrotation Yrotation
  JOINT Spine
  {
    OFFSET 12.0259 -0.162855 1.69034e-005
    CHANNELS 3 Zrotation Xrotation Yrotation
    JOINT Spine1
    {
      OFFSET 15.3169 -0.0121922 0
      CHANNELS 3 Zrotation Xrotation Yrotation
      JOINT Spine2
      {
        OFFSET 15.3176 -0.0121908 0
        CHANNELS 3 Zrotation Xrotation Yrotation
        JOINT Neck
        {
          OFFSET 19.9142 1.56338 0
          CHANNELS 3 Zrotation Xrotation Yrotation
          JOINT Head
          {
            OFFSET 6.92651 0 0
            CHANNELS 3 Zrotation Xrotation Yrotation
            End Site
            {
              OFFSET 20.7666 0 0
            }
          }
          JOINT LeftShoulder
          {
            OFFSET -6.20654 0.708824 7.28219
            CHANNELS 3 Zrotation Xrotation Yrotation
            JOINT LeftArm
            {
              OFFSET 14.108 0 -1.52588e-005
              CHANNELS 3 Zrotation Xrotation Yrotation
              JOINT LeftForeArm
              {
                OFFSET 28.5802 0 0
                CHANNELS 3 Zrotation Xrotation Yrotation
                JOINT LeftHand
                {
                  OFFSET 27.092 0 0
                  CHANNELS 3 Zrotation Xrotation Yrotation
                  End Site
                  {
                    OFFSET 9.55928 -0.186424 0.145352
                  }
                }
              }
            }
          }
          JOINT RightShoulder
          {
            OFFSET -6.20654 0.708866 -7.28218
            CHANNELS 3 Zrotation Xrotation Yrotation
            JOINT RightArm
            {
              OFFSET 14.108 0 1.52588e-005
              CHANNELS 3 Zrotation Xrotation Yrotation
              JOINT RightForeArm
              {
                OFFSET 28.5802 0 0
                CHANNELS 3 Zrotation Xrotation Yrotation
                JOINT RightHand
                {
                  OFFSET 27.092 0 0
                  CHANNELS 3 Zrotation Xrotation Yrotation
                  End Site
                  {
                    OFFSET 9.55929 -0.186417 -0.145354
                  }
                }
              }
            }
          }
        }
      }
    }
  }
  JOINT LeftUpLeg
  {
    OFFSET 0.005 -0.535 8.837
    CHANNELS 3 Zrotation Xrotation Yrotation
    JOINT LeftLeg
    {
      OFFSET 39.9035 0 0
      CHANNELS 3 Zrotation Xrotation Yrotation
      JOINT LeftFoot
      {
        OFFSET 39.6689 0 0
        CHANNELS 3 Zrotation Xrotation Yrotation
        JOINT LeftToe
        {
          OFFSET 10.1624 13.6296 0
          CHANNELS 3 Zrotation Xrotation Yrotation
          End Site
          {
            OFFSET 8.38147 0 0
          }
        }
      }
    }
  }
  JOINT RightUpLeg
  {
    OFFSET 0.005 -0.535 -8.837
    CHANNELS 3 Zrotation Xrotation Yrotation
    JOINT RightLeg
    {
      OFFSET 39.9035 0 0
      CHANNELS 3 Zrotation Xrotation Yrotation
      JOINT RightFoot
      {
        OFFSET 39.6689 0 0
        CHANNELS 3 Zrotation Xrotation Yrotation
        JOINT RightToe
        {
          OFFSET 10.1624 13.6296 0
          CHANNELS 3 Zrotation Xrotation Yrotation
          End Site
          {
            OFFSET 8.38147 0 0
          }
        }
      }
    }
  }
}
MOTION
Frames:	9
Frame Time:	0.0333333
138.998 87.905 385.926 99.8452 -74.7209 11.7829 0.882465 -0.953554 0.241035 1.7693 -1.9028 0.496995 1.7693 -1.9028 0.496985 -8.31066e-012 -9.0191e-006 -5.27751e-005 -27.5742 -9.48388 -0.481728 179.949 0.131465 -68.8068 -11.7966 -1.93854 55.4969 -19.7292 1.2921e-015 -2.78299e-015 -27.7738 -27.6012 -21.2593 -179.644 0.84745 67.2362 14.3734 10.0274 -61.8113 -22.1433 -7.95139e-016 3.97569e-016 -35.4574 36.6351 38.6952 -9.05509 0.729389 176.395 -21.9942 3.18055e-015 -0 19.7249 10.4931 0.57119 90 -9.93923e-017 -1.59028e-015 -24.0233 -22.2973 155.657 -23.2143 4.77083e-015 -7.95139e-016 -0.00199122 -15.1232 11.6153 90 2.32951e-017 -0 
138.515 87.8804 386.003 99.0169 -74.1142 10.881 0.901678 -0.86306 0.164763 1.80614 -1.72294 0.343308 1.80614 -1.72294 0.343299 -8.30748e-012 -9.0191e-006 -5.27751e-005 -25.8345 -12.3516 -6.44466 -179.878 -0.306657 -68.2738 -11.7688 0.262039 53.8454 -21.2665 -5.96354e-016 -1.86361e-016 -28.1226 -28.8264 -21.9969 -179.691 0.748827 67.5707 13.7708 10.0419 -62.084 -22.0438 0 -1.39149e-015 -34.2674 37.4892 37.6029 -9.12658 0.208485 176.037 -22.3236 -4.77083e-015 -1.59028e-015 19.9929 10.5436 0.909933 90 0 -7.95139e-016 -23.3074 -22.268 155.411 -22.5062 0 4.57205e-015 -0.279258 -15.0814 12.1899 90 0 1.98785e-016 
138.205 87.8451 386.054 98.5121 -74.1492 9.60102 0.915878 -0.592364 0.173432 1.83369 -1.1814 0.356498 1.83369 -1.1814 0.356489 -8.31146e-012 -9.0191e-006 -5.27751e-005 -26.3232 -11.8042 -1.59402 -179.821 -0.444616 -68.048 -11.0332 1.77838 52.6429 -21.7542 1.88845e-015 1.3418e-015 -28.0844 -28.6961 -21.9176 -179.643 0.860955 67.4701 12.142 9.40129 -61.6154 -21.9849 3.97569e-016 -9.93923e-017 -33.631 36.3186 36.8722 -8.86972 -8.17731 175.531 -20.2938 0 1.98785e-016 14.2288 2.9983 2.10424 90 -6.21202e-018 -0 -22.5515 -22.0783 156.227 -22.1285 0 -7.95139e-016 -0.905715 -14.6598 12.4087 90 1.2424e-017 -9.93923e-017 
136.912 87.7961 386.187 94.0731 -71.5764 6.90921 1.09003 -0.969672 -0.205982 2.17704 -1.94261 -0.393402 2.17704 -1.94261 -0.393411 -8.30748e-012 -9.0191e-006 -5.27751e-005 -27.3419 -12.2048 -0.521086 -179.663 -0.828772 -67.8589 -10.0942 2.43339 51.8575 -21.3496 -3.97569e-016 -1.2921e-015 -28.0567 -28.6003 -21.8595 -179.765 0.576772 67.8187 11.7485 9.34545 -61.5224 -21.9384 9.93923e-017 1.98785e-016 -32.7729 36.3274 36.1459 -7.61329 -11.775 172.585 -18.1769 7.95139e-016 7.95139e-016 12.6818 1.78155 3.10801 90 -1.55301e-018 -7.95139e-016 -23.2163 -24.9208 152.133 -21.9534 1.59028e-015 -9.93923e-016 -1.04371 -15.566 13.1512 90 -1.80537e-017 -0 
136.921 87.7856 386.254 96.0561 -73.0706 7.88765 1.00469 -0.488666 -0.107631 2.00858 -0.978669 -0.20653 2.00858 -0.978669 -0.206539 -8.30669e-012 -9.0191e-006 -5.27751e-005 -25.3585 -15.2932 -6.83791 -179.585 -1.0159 -67.7596 -6.24865 -0.817051 51.5989 -19.674 -1.59028e-015 7.15625e-015 -27.6041 -35.1168 -33.7948 -179.826 0.435604 68.2088 11.202 9.19445 -61.358 -22.2278 1.98785e-016 -9.93923e-016 -31.9225 36.534 35.5629 -8.32177 -10.3092 173.605 -19.4226 7.95139e-016 -3.97569e-016 13.3913 1.89527 3.12648 90 1.55301e-018 7.95139e-016 -23.3327 -22.826 153.892 -22.8805 3.18056e-015 4.17448e-015 -1.90104 -14.0312 13.0289 90 -2.48481e-017 -0 
136.677 87.8388 386.491 96.6367 -73.0096 8.72658 0.940417 -0.375829 -0.240222 1.87931 -0.755072 -0.4741 1.87931 -0.755073 -0.474109 -8.30828e-012 -9.0191e-006 -5.27751e-005 -26.9824 -13.5006 -1.09304 -179.527 -1.15312 -67.6754 -4.17782 -1.72563 51.5419 -17.6512 1.59028e-015 3.97569e-016 -27.2026 -34.6939 -33.7449 -179.808 0.480668 68.2636 10.9372 9.60582 -61.083 -22.3426 0 9.93923e-017 -31.2238 37.5343 34.9956 -8.72714 -1.86924 174.097 -22.0707 -3.18055e-015 -7.95139e-016 19.6608 9.46949 2.49181 90 -4.96962e-017 -7.95139e-016 -24.3639 -22.6578 153.262 -23.6044 1.59028e-015 -3.97569e-015 -2.6198 -13.2653 12.9558 90 0 -7.95139e-016 
136.351 87.8386 386.66 96.4912 -72.7389 8.61218 0.920665 -0.370202 -0.310256 1.83937 -0.744863 -0.614385 1.83937 -0.744863 -0.614394 -8.30748e-012 -9.0191e-006 -5.27751e-005 -26.7928 -13.6543 -1.20089 -179.497 -1.21968 -67.5896 -2.27546 -2.46418 51.5867 -15.6497 4.77083e-015 -9.93923e-016 -27.1047 -33.634 -33.51 -179.817 0.460453 68.3318 10.8676 10.0355 -61.0512 -22.8214 5.96354e-016 -3.18055e-015 -31.1493 38.0598 34.9612 -8.79129 -2.1612 173.744 -21.9944 -3.18055e-015 3.97569e-016 19.5478 9.43306 2.76688 90 0 -7.95139e-016 -25.0274 -22.9413 152.795 -24.1741 -4.77083e-015 1.59028e-015 -3.22065 -12.3768 12.944 90 0 3.97569e-016 
136.138 87.8273 386.781 96.3356 -72.5552 8.42901 0.895843 -0.374587 -0.364505 1.78935 -0.754347 -0.722972 1.78935 -0.754347 -0.722981 -8.30748e-012 -9.0191e-006 -5.27751e-005 -25.3338 -14.2053 -2.29721 -179.583 -1.00488 -67.4619 -0.697532 -2.49617 51.6863 -14.2132 -3.18055e-015 6.36111e-015 -26.9991 -32.6853 -33.2909 -179.848 0.381322 68.3386 10.7969 10.256 -61.0781 -23.6196 -9.93923e-016 1.49089e-015 -31.1846 38.7015 35.1255 -8.89044 -3.79798 173.375 -21.685 -1.59028e-015 -3.97569e-016 18.6447 8.11564 3.15187 90 1.49089e-016 7.95139e-016 -25.5849 -22.8361 152.603 -25.1023 0 -0 -3.68424 -10.7657 12.9857 90 1.98785e-016 -7.95139e-016 
135.884 87.8183 386.887 95.6641 -72.0823 7.86372 0.935171 -0.493999 -0.411961 1.86687 -0.99417 -0.815691 1.86687 -0.99417 -0.8157 -8.30669e-012 -9.0191e-006 -5.27751e-005 -24.7728 -16.0162 -7.11686 -179.56 -1.05095 -67.3014 -0.516621 -1.75165 51.8135 -13.6171 6.36111e-015 4.77083e-015 -26.6269 -32.5487 -33.0872 -179.826 0.4436 68.5556 9.89628 10.1757 -61.3273 -24.6504 -1.19271e-015 -5.96354e-016 -31.4381 39.0983 35.3005 -8.80524 -4.78689 172.943 -21.4571 1.59028e-015 1.59028e-015 18.2356 7.46957 3.43752 90 0 -1.59028e-015 -26.3141 -23.2817 151.972 -26.0663 -1.59028e-015 3.18056e-015 -4.25664 -8.8577 13.0111 90 -1.98785e-016 -1.59028e-015 
